<svg width="960" height="480" viewBox="0 0 960 480" fill="none" xmlns="http://www.w3.org/2000/svg">
<g clip-path="url(#clip0_2226_77411)">
<path d="M894.671 99.9325L897.668 110.106C898.21 111.943 897.725 113.93 896.399 115.311L889.053 122.962C887.739 124.329 885.801 124.894 883.964 124.446L873.542 121.903C871.705 121.455 870.244 120.061 869.709 118.243L866.711 108.069C866.17 106.232 866.655 104.245 867.981 102.864L875.327 95.2133C876.64 93.8457 878.578 93.2812 880.415 93.7293L890.838 96.272C892.674 96.7201 894.135 98.1138 894.671 99.9325Z" stroke="white" stroke-width="2"/>
<path fill-rule="evenodd" clip-rule="evenodd" d="M886.603 114.808C887.026 115.31 886.965 116.069 886.409 116.416C882.543 118.83 877.389 117.572 875.069 113.65C874.735 113.085 875.03 112.383 875.637 112.133V112.133C876.243 111.882 876.929 112.181 877.296 112.725C878.954 115.182 882.255 115.987 884.858 114.57C885.434 114.256 886.18 114.306 886.603 114.808V114.808Z" fill="white"/>
<path d="M795.671 237.932L798.668 248.106C799.21 249.943 798.725 251.93 797.399 253.311L790.053 260.962C788.739 262.329 786.801 262.894 784.964 262.446L774.542 259.903C772.705 259.455 771.244 258.061 770.709 256.243L767.711 246.069C767.17 244.232 767.655 242.245 768.981 240.864L776.327 233.213C777.64 231.846 779.578 231.281 781.415 231.729L791.838 234.272C793.674 234.72 795.135 236.114 795.671 237.932Z" stroke="white" stroke-width="2"/>
<path fill-rule="evenodd" clip-rule="evenodd" d="M787.603 252.808C788.026 253.31 787.965 254.069 787.409 254.416C783.543 256.83 778.389 255.572 776.069 251.65C775.735 251.085 776.03 250.383 776.637 250.133V250.133C777.243 249.882 777.929 250.181 778.296 250.725C779.954 253.182 783.255 253.987 785.858 252.57C786.434 252.256 787.18 252.306 787.603 252.808V252.808Z" fill="white"/>
<path d="M262.671 199.932L265.668 210.106C266.21 211.943 265.725 213.93 264.399 215.311L257.053 222.962C255.739 224.329 253.801 224.894 251.964 224.446L241.542 221.903C239.705 221.455 238.244 220.061 237.709 218.243L234.711 208.069C234.17 206.232 234.655 204.245 235.981 202.864L243.327 195.213C244.64 193.846 246.578 193.281 248.415 193.729L258.838 196.272C260.674 196.72 262.135 198.114 262.671 199.932Z" stroke="white" stroke-width="2"/>
<path fill-rule="evenodd" clip-rule="evenodd" d="M254.603 214.808C255.026 215.31 254.965 216.069 254.409 216.416C250.543 218.83 245.389 217.572 243.069 213.65C242.735 213.085 243.03 212.383 243.637 212.133V212.133C244.243 211.882 244.929 212.181 245.296 212.725C246.954 215.182 250.255 215.987 252.858 214.57C253.434 214.256 254.18 214.306 254.603 214.808V214.808Z" fill="white"/>
<path d="M22.6708 137.932L25.6685 148.106C26.2096 149.943 25.7247 151.93 24.3986 153.311L17.0525 160.962C15.7393 162.329 13.8011 162.894 11.9643 162.446L1.54173 159.903C-0.295125 159.455 -1.75561 158.061 -2.29149 156.243L-5.2892 146.069C-5.83033 144.232 -5.34544 142.245 -4.01935 140.864L3.32676 133.213C4.63996 131.846 6.57815 131.281 8.41501 131.729L18.8375 134.272C20.6744 134.72 22.1349 136.114 22.6708 137.932Z" stroke="white" stroke-width="2"/>
<path fill-rule="evenodd" clip-rule="evenodd" d="M14.6032 152.808C15.0262 153.31 14.9655 154.069 14.4088 154.416C10.5429 156.83 5.38906 155.572 3.0689 151.65C2.73482 151.085 3.03044 150.383 3.63694 150.133V150.133C4.24344 149.882 4.92855 150.181 5.29567 150.725C6.95398 153.182 10.2546 153.987 12.858 152.57C13.4344 152.256 14.1802 152.306 14.6032 152.808V152.808Z" fill="white"/>
<path d="M182.671 26.9325L185.668 37.1063C186.21 38.9428 185.725 40.9304 184.399 42.3114L177.053 49.9618C175.739 51.3294 173.801 51.8938 171.964 51.4457L161.542 48.903C159.705 48.4549 158.244 47.0613 157.709 45.2426L154.711 35.0688C154.17 33.2322 154.655 31.2446 155.981 29.8636L163.327 22.2133C164.64 20.8457 166.578 20.2812 168.415 20.7293L178.838 23.272C180.674 23.7201 182.135 25.1138 182.671 26.9325Z" stroke="white" stroke-width="2"/>
<path fill-rule="evenodd" clip-rule="evenodd" d="M174.603 41.8079C175.026 42.3096 174.965 43.0686 174.409 43.4161C170.543 45.8295 165.389 44.5722 163.069 40.6496C162.735 40.0848 163.03 39.3832 163.637 39.1326V39.1326C164.243 38.882 164.929 39.181 165.296 39.7249C166.954 42.1818 170.255 42.987 172.858 41.5699C173.434 41.2561 174.18 41.3062 174.603 41.8079V41.8079Z" fill="white"/>
<path d="M378.671 175.932L381.668 186.106C382.21 187.943 381.725 189.93 380.399 191.311L373.053 198.962C371.739 200.329 369.801 200.894 367.964 200.446L357.542 197.903C355.705 197.455 354.244 196.061 353.709 194.243L350.711 184.069C350.17 182.232 350.655 180.245 351.981 178.864L359.327 171.213C360.64 169.846 362.578 169.281 364.415 169.729L374.838 172.272C376.674 172.72 378.135 174.114 378.671 175.932Z" stroke="white" stroke-width="2"/>
<path fill-rule="evenodd" clip-rule="evenodd" d="M370.603 190.808C371.026 191.31 370.965 192.069 370.409 192.416C366.543 194.83 361.389 193.572 359.069 189.65C358.735 189.085 359.03 188.383 359.637 188.133V188.133C360.243 187.882 360.929 188.181 361.296 188.725C362.954 191.182 366.255 191.987 368.858 190.57C369.434 190.256 370.18 190.306 370.603 190.808V190.808Z" fill="white"/>
<path d="M389.671 460.932L392.668 471.106C393.21 472.943 392.725 474.93 391.399 476.311L384.053 483.962C382.739 485.329 380.801 485.894 378.964 485.446L368.542 482.903C366.705 482.455 365.244 481.061 364.709 479.243L361.711 469.069C361.17 467.232 361.655 465.245 362.981 463.864L370.327 456.213C371.64 454.846 373.578 454.281 375.415 454.729L385.838 457.272C387.674 457.72 389.135 459.114 389.671 460.932Z" stroke="white" stroke-width="2"/>
<path fill-rule="evenodd" clip-rule="evenodd" d="M381.603 475.808C382.026 476.31 381.965 477.069 381.409 477.416C377.543 479.83 372.389 478.572 370.069 474.65C369.735 474.085 370.03 473.383 370.637 473.133V473.133C371.243 472.882 371.929 473.181 372.296 473.725C373.954 476.182 377.255 476.987 379.858 475.57C380.434 475.256 381.18 475.306 381.603 475.808V475.808Z" fill="white"/>
<path d="M575.671 282.932L578.668 293.106C579.21 294.943 578.725 296.93 577.399 298.311L570.053 305.962C568.739 307.329 566.801 307.894 564.964 307.446L554.542 304.903C552.705 304.455 551.244 303.061 550.709 301.243L547.711 291.069C547.17 289.232 547.655 287.245 548.981 285.864L556.327 278.213C557.64 276.846 559.578 276.281 561.415 276.729L571.838 279.272C573.674 279.72 575.135 281.114 575.671 282.932Z" stroke="white" stroke-width="2"/>
<path fill-rule="evenodd" clip-rule="evenodd" d="M567.603 297.808C568.026 298.31 567.965 299.069 567.409 299.416C563.543 301.83 558.389 300.572 556.069 296.65C555.735 296.085 556.03 295.383 556.637 295.133V295.133C557.243 294.882 557.929 295.181 558.296 295.725C559.954 298.182 563.255 298.987 565.858 297.57C566.434 297.256 567.18 297.306 567.603 297.808V297.808Z" fill="white"/>
<path d="M175.671 387.932L178.668 398.106C179.21 399.943 178.725 401.93 177.399 403.311L170.053 410.962C168.739 412.329 166.801 412.894 164.964 412.446L154.542 409.903C152.705 409.455 151.244 408.061 150.709 406.243L147.711 396.069C147.17 394.232 147.655 392.245 148.981 390.864L156.327 383.213C157.64 381.846 159.578 381.281 161.415 381.729L171.838 384.272C173.674 384.72 175.135 386.114 175.671 387.932Z" stroke="white" stroke-width="2"/>
<path fill-rule="evenodd" clip-rule="evenodd" d="M167.603 402.808C168.026 403.31 167.965 404.069 167.409 404.416C163.543 406.83 158.389 405.572 156.069 401.65C155.735 401.085 156.03 400.383 156.637 400.133V400.133C157.243 399.882 157.929 400.181 158.296 400.725C159.954 403.182 163.255 403.987 165.858 402.57C166.434 402.256 167.18 402.306 167.603 402.808V402.808Z" fill="white"/>
<path d="M750.671 447.932L753.668 458.106C754.21 459.943 753.725 461.93 752.399 463.311L745.053 470.962C743.739 472.329 741.801 472.894 739.964 472.446L729.542 469.903C727.705 469.455 726.244 468.061 725.709 466.243L722.711 456.069C722.17 454.232 722.655 452.245 723.981 450.864L731.327 443.213C732.64 441.846 734.578 441.281 736.415 441.729L746.838 444.272C748.674 444.72 750.135 446.114 750.671 447.932Z" stroke="white" stroke-width="2"/>
<path fill-rule="evenodd" clip-rule="evenodd" d="M742.603 462.808C743.026 463.31 742.965 464.069 742.409 464.416C738.543 466.83 733.389 465.572 731.069 461.65C730.735 461.085 731.03 460.383 731.637 460.133V460.133C732.243 459.882 732.929 460.181 733.296 460.725C734.954 463.182 738.255 463.987 740.858 462.57C741.434 462.256 742.18 462.306 742.603 462.808V462.808Z" fill="white"/>
<path d="M499.671 139.932L502.668 150.106C503.21 151.943 502.725 153.93 501.399 155.311L494.053 162.962C492.739 164.329 490.801 164.894 488.964 164.446L478.542 161.903C476.705 161.455 475.244 160.061 474.709 158.243L471.711 148.069C471.17 146.232 471.655 144.245 472.981 142.864L480.327 135.213C481.64 133.846 483.578 133.281 485.415 133.729L495.838 136.272C497.674 136.72 499.135 138.114 499.671 139.932Z" stroke="white" stroke-width="2"/>
<path fill-rule="evenodd" clip-rule="evenodd" d="M491.603 154.808C492.026 155.31 491.965 156.069 491.409 156.416C487.543 158.83 482.389 157.572 480.069 153.65C479.735 153.085 480.03 152.383 480.637 152.133V152.133C481.243 151.882 481.929 152.181 482.296 152.725C483.954 155.182 487.255 155.987 489.858 154.57C490.434 154.256 491.18 154.306 491.603 154.808V154.808Z" fill="white"/>
<path d="M300.671 96.9325L303.668 107.106C304.21 108.943 303.725 110.93 302.399 112.311L295.053 119.962C293.739 121.329 291.801 121.894 289.964 121.446L279.542 118.903C277.705 118.455 276.244 117.061 275.709 115.243L272.711 105.069C272.17 103.232 272.655 101.245 273.981 99.8636L281.327 92.2133C282.64 90.8457 284.578 90.2812 286.415 90.7293L296.838 93.272C298.674 93.7201 300.135 95.1138 300.671 96.9325Z" stroke="white" stroke-width="2"/>
<path fill-rule="evenodd" clip-rule="evenodd" d="M292.603 111.808C293.026 112.31 292.965 113.069 292.409 113.416C288.543 115.83 283.389 114.572 281.069 110.65C280.735 110.085 281.03 109.383 281.637 109.133V109.133C282.243 108.882 282.929 109.181 283.296 109.725C284.954 112.182 288.255 112.987 290.858 111.57C291.434 111.256 292.18 111.306 292.603 111.808V111.808Z" fill="white"/>
<path d="M918.671 295.932L921.668 306.106C922.21 307.943 921.725 309.93 920.399 311.311L913.053 318.962C911.739 320.329 909.801 320.894 907.964 320.446L897.542 317.903C895.705 317.455 894.244 316.061 893.709 314.243L890.711 304.069C890.17 302.232 890.655 300.245 891.981 298.864L899.327 291.213C900.64 289.846 902.578 289.281 904.415 289.729L914.838 292.272C916.674 292.72 918.135 294.114 918.671 295.932Z" stroke="white" stroke-width="2"/>
<path fill-rule="evenodd" clip-rule="evenodd" d="M910.603 310.808C911.026 311.31 910.965 312.069 910.409 312.416C906.543 314.83 901.389 313.572 899.069 309.65C898.735 309.085 899.03 308.383 899.637 308.133V308.133C900.243 307.882 900.929 308.181 901.296 308.725C902.954 311.182 906.255 311.987 908.858 310.57C909.434 310.256 910.18 310.306 910.603 310.808V310.808Z" fill="white"/>
<path d="M576.671 33.9325L579.668 44.1063C580.21 45.9428 579.725 47.9304 578.399 49.3114L571.053 56.9618C569.739 58.3294 567.801 58.8938 565.964 58.4457L555.542 55.903C553.705 55.4549 552.244 54.0613 551.709 52.2426L548.711 42.0688C548.17 40.2322 548.655 38.2446 549.981 36.8636L557.327 29.2133C558.64 27.8457 560.578 27.2812 562.415 27.7293L572.838 30.272C574.674 30.7201 576.135 32.1138 576.671 33.9325Z" stroke="white" stroke-width="2"/>
<path fill-rule="evenodd" clip-rule="evenodd" d="M568.603 48.8079C569.026 49.3096 568.965 50.0686 568.409 50.4161C564.543 52.8295 559.389 51.5722 557.069 47.6496C556.735 47.0848 557.03 46.3832 557.637 46.1326V46.1326C558.243 45.882 558.929 46.181 559.296 46.7249C560.954 49.1818 564.255 49.987 566.858 48.5699C567.434 48.2561 568.18 48.3062 568.603 48.8079V48.8079Z" fill="white"/>
<path d="M699.967 102.059L712.755 124.096C715.316 128.509 715.316 133.961 712.755 138.374L699.967 160.411C697.43 164.781 692.767 167.469 687.724 167.469H661.952C656.909 167.469 652.246 164.781 649.709 160.411L636.921 138.374C634.36 133.961 634.36 128.509 636.921 124.096L649.709 102.059C652.246 97.6879 656.909 95 661.952 95H687.724C692.767 95 697.43 97.6879 699.967 102.059Z" stroke="white" stroke-width="2"/>
<path fill-rule="evenodd" clip-rule="evenodd" d="M688.395 142.072C689.668 143.002 689.959 144.808 688.857 145.936C681.209 153.769 668.465 153.769 660.817 145.936C659.716 144.808 660.006 143.002 661.279 142.072V142.072C662.552 141.142 664.321 141.449 665.488 142.51C670.757 147.3 678.918 147.3 684.187 142.51C685.353 141.449 687.123 141.142 688.395 142.072V142.072Z" fill="white"/>
<path d="M489.967 211.059L502.755 233.096C505.316 237.509 505.316 242.961 502.755 247.374L489.967 269.411C487.43 273.781 482.767 276.469 477.724 276.469H451.952C446.909 276.469 442.246 273.781 439.709 269.411L426.921 247.374C424.36 242.961 424.36 237.509 426.921 233.096L439.709 211.059C442.246 206.688 446.909 204 451.952 204H477.724C482.767 204 487.43 206.688 489.967 211.059Z" stroke="white" stroke-width="2"/>
<path fill-rule="evenodd" clip-rule="evenodd" d="M478.395 251.072C479.668 252.002 479.959 253.808 478.857 254.936C471.209 262.769 458.465 262.769 450.817 254.936C449.716 253.808 450.006 252.002 451.279 251.072V251.072C452.552 250.142 454.321 250.449 455.488 251.51C460.757 256.3 468.918 256.3 474.187 251.51C475.353 250.449 477.123 250.142 478.395 251.072V251.072Z" fill="white"/>
<path d="M166.967 64.0587L179.755 86.0955C182.316 90.5087 182.316 95.9606 179.755 100.374L166.967 122.411C164.43 126.781 159.767 129.469 154.724 129.469H128.952C123.909 129.469 119.246 126.781 116.709 122.411L103.921 100.374C101.36 95.9606 101.36 90.5087 103.921 86.0955L116.709 64.0587C119.246 59.6879 123.909 57 128.952 57H154.724C159.767 57 164.43 59.6879 166.967 64.0587Z" stroke="white" stroke-width="2"/>
<path fill-rule="evenodd" clip-rule="evenodd" d="M155.395 104.072C156.668 105.002 156.959 106.808 155.857 107.936C148.209 115.769 135.465 115.769 127.817 107.936C126.716 106.808 127.006 105.002 128.279 104.072V104.072C129.552 103.142 131.321 103.449 132.488 104.51C137.757 109.3 145.918 109.3 151.187 104.51C152.353 103.449 154.123 103.142 155.395 104.072V104.072Z" fill="white"/>
<path d="M442.967 380.059L455.755 402.096C458.316 406.509 458.316 411.961 455.755 416.374L442.967 438.411C440.43 442.781 435.767 445.469 430.724 445.469H404.952C399.909 445.469 395.246 442.781 392.709 438.411L379.921 416.374C377.36 411.961 377.36 406.509 379.921 402.096L392.709 380.059C395.246 375.688 399.909 373 404.952 373H430.724C435.767 373 440.43 375.688 442.967 380.059Z" stroke="white" stroke-width="2"/>
<path fill-rule="evenodd" clip-rule="evenodd" d="M431.395 420.072C432.668 421.002 432.959 422.808 431.857 423.936C424.209 431.769 411.465 431.769 403.817 423.936C402.716 422.808 403.006 421.002 404.279 420.072V420.072C405.552 419.142 407.321 419.449 408.488 420.51C413.757 425.3 421.918 425.3 427.187 420.51C428.353 419.449 430.123 419.142 431.395 420.072V420.072Z" fill="white"/>
<path d="M33.9667 -14.9413L46.7552 7.09553C49.3163 11.5087 49.3163 16.9606 46.7552 21.3738L33.9667 43.4106C31.4302 47.7814 26.7667 50.4693 21.7239 50.4693H-4.04782C-9.0907 50.4693 -13.7542 47.7814 -16.2906 43.4106L-29.0792 21.3738C-31.6403 16.9606 -31.6403 11.5087 -29.0792 7.09553L-16.2906 -14.9413C-13.7542 -19.3121 -9.0907 -22 -4.04782 -22H21.7239C26.7667 -22 31.4302 -19.3121 33.9667 -14.9413Z" stroke="white" stroke-width="2"/>
<path fill-rule="evenodd" clip-rule="evenodd" d="M22.3953 25.0718C23.6681 26.0019 23.9586 27.8077 22.8573 28.9356C15.2092 36.7691 2.4653 36.7691 -5.1828 28.9356C-6.28405 27.8076 -5.9936 26.0019 -4.72083 25.0718V25.0718C-3.44805 24.1417 -1.67891 24.4495 -0.512432 25.5098C4.75652 30.2995 12.918 30.2995 18.1869 25.5098C19.3534 24.4495 21.1226 24.1417 22.3953 25.0718V25.0718Z" fill="white"/>
<path d="M81.9667 378.059L94.7552 400.096C97.3163 404.509 97.3163 409.961 94.7552 414.374L81.9667 436.411C79.4302 440.781 74.7667 443.469 69.7239 443.469H43.9522C38.9093 443.469 34.2458 440.781 31.7094 436.411L18.9208 414.374C16.3597 409.961 16.3597 404.509 18.9208 400.096L31.7094 378.059C34.2458 373.688 38.9093 371 43.9522 371H69.7239C74.7667 371 79.4302 373.688 81.9667 378.059Z" stroke="white" stroke-width="2"/>
<path fill-rule="evenodd" clip-rule="evenodd" d="M70.3953 418.072C71.6681 419.002 71.9586 420.808 70.8573 421.936C63.2092 429.769 50.4653 429.769 42.8172 421.936C41.7159 420.808 42.0064 419.002 43.2792 418.072V418.072C44.5519 417.142 46.3211 417.449 47.4876 418.51C52.7565 423.3 60.918 423.3 66.1869 418.51C67.3534 417.449 69.1226 417.142 70.3953 418.072V418.072Z" fill="white"/>
<path d="M772.967 323.059L785.755 345.096C788.316 349.509 788.316 354.961 785.755 359.374L772.967 381.411C770.43 385.781 765.767 388.469 760.724 388.469H734.952C729.909 388.469 725.246 385.781 722.709 381.411L709.921 359.374C707.36 354.961 707.36 349.509 709.921 345.096L722.709 323.059C725.246 318.688 729.909 316 734.952 316H760.724C765.767 316 770.43 318.688 772.967 323.059Z" stroke="white" stroke-width="2"/>
<path fill-rule="evenodd" clip-rule="evenodd" d="M761.395 363.072C762.668 364.002 762.959 365.808 761.857 366.936C754.209 374.769 741.465 374.769 733.817 366.936C732.716 365.808 733.006 364.002 734.279 363.072V363.072C735.552 362.142 737.321 362.449 738.488 363.51C743.757 368.3 751.918 368.3 757.187 363.51C758.353 362.449 760.123 362.142 761.395 363.072V363.072Z" fill="white"/>
<path d="M239.967 285.059L252.755 307.096C255.316 311.509 255.316 316.961 252.755 321.374L239.967 343.411C237.43 347.781 232.767 350.469 227.724 350.469H201.952C196.909 350.469 192.246 347.781 189.709 343.411L176.921 321.374C174.36 316.961 174.36 311.509 176.921 307.096L189.709 285.059C192.246 280.688 196.909 278 201.952 278H227.724C232.767 278 237.43 280.688 239.967 285.059Z" stroke="white" stroke-width="2"/>
<path fill-rule="evenodd" clip-rule="evenodd" d="M228.395 325.072C229.668 326.002 229.959 327.808 228.857 328.936C221.209 336.769 208.465 336.769 200.817 328.936C199.716 327.808 200.006 326.002 201.279 325.072V325.072C202.552 324.142 204.321 324.449 205.488 325.51C210.757 330.3 218.918 330.3 224.187 325.51C225.353 324.449 227.123 324.142 228.395 325.072V325.072Z" fill="white"/>
<path d="M912.967 149.059L925.755 171.096C928.316 175.509 928.316 180.961 925.755 185.374L912.967 207.411C910.43 211.781 905.767 214.469 900.724 214.469H874.952C869.909 214.469 865.246 211.781 862.709 207.411L849.921 185.374C847.36 180.961 847.36 175.509 849.921 171.096L862.709 149.059C865.246 144.688 869.909 142 874.952 142H900.724C905.767 142 910.43 144.688 912.967 149.059Z" stroke="white" stroke-width="2"/>
<path fill-rule="evenodd" clip-rule="evenodd" d="M901.395 189.072C902.668 190.002 902.959 191.808 901.857 192.936C894.209 200.769 881.465 200.769 873.817 192.936C872.716 191.808 873.006 190.002 874.279 189.072V189.072C875.552 188.142 877.321 188.449 878.488 189.51C883.757 194.3 891.918 194.3 897.187 189.51C898.353 188.449 900.123 188.142 901.395 189.072V189.072Z" fill="white"/>
<path d="M245.722 411.44L236.368 395.322C234.543 392.177 234.543 388.292 236.368 385.148L245.722 369.029C247.53 365.915 250.852 364 254.445 364L273.295 364C276.888 364 280.21 365.915 282.018 369.029L291.372 385.148C293.196 388.292 293.196 392.177 291.372 395.322L282.018 411.44C280.21 414.554 276.888 416.469 273.295 416.469L254.445 416.469C250.852 416.469 247.53 414.554 245.722 411.44Z" stroke="white" stroke-width="2"/>
<path fill-rule="evenodd" clip-rule="evenodd" d="M253.954 382.308C253.023 381.628 252.811 380.307 253.616 379.482C259.211 373.752 268.532 373.752 274.126 379.482C274.931 380.307 274.719 381.628 273.788 382.308V382.308C272.857 382.989 271.563 382.763 270.71 381.988C266.856 378.485 260.886 378.485 257.032 381.988C256.179 382.763 254.885 382.989 253.954 382.308V382.308Z" fill="white"/>
<path d="M855.722 23.44L846.368 7.32157C844.543 4.17695 844.543 0.292189 846.368 -2.85243L855.722 -18.9709C857.53 -22.0852 860.852 -24.0001 864.445 -24.0001L883.295 -24.0001C886.888 -24.0001 890.21 -22.0852 892.018 -18.9709L901.372 -2.85242C903.196 0.292194 903.196 4.17696 901.372 7.32157L892.018 23.4401C890.21 26.5544 886.888 28.4692 883.295 28.4692L864.445 28.4692C860.852 28.4692 857.53 26.5543 855.722 23.44Z" stroke="white" stroke-width="2"/>
<path d="M292.722 49.44L283.368 33.3216C281.543 30.1769 281.543 26.2922 283.368 23.1476L292.722 7.02909C294.53 3.91479 297.852 1.99991 301.445 1.99991L320.295 1.99991C323.888 1.99991 327.21 3.91479 329.018 7.0291L338.372 23.1476C340.196 26.2922 340.196 30.177 338.372 33.3216L329.018 49.4401C327.21 52.5544 323.888 54.4692 320.295 54.4692L301.445 54.4692C297.852 54.4692 294.53 52.5543 292.722 49.44Z" stroke="white" stroke-width="2"/>
<path fill-rule="evenodd" clip-rule="evenodd" d="M300.954 20.3082C300.023 19.6279 299.811 18.3071 300.616 17.4821C306.211 11.7524 315.532 11.7524 321.126 17.4821C321.931 18.3071 321.719 19.6279 320.788 20.3082V20.3082C319.857 20.9885 318.563 20.7634 317.71 19.9878C313.856 16.4845 307.886 16.4845 304.032 19.9878C303.179 20.7634 301.885 20.9885 300.954 20.3082V20.3082Z" fill="white"/>
<path d="M503.722 391.44L494.368 375.322C492.543 372.177 492.543 368.292 494.368 365.148L503.722 349.029C505.53 345.915 508.852 344 512.445 344L531.295 344C534.888 344 538.21 345.915 540.018 349.029L549.372 365.148C551.196 368.292 551.196 372.177 549.372 375.322L540.018 391.44C538.21 394.554 534.888 396.469 531.295 396.469L512.445 396.469C508.852 396.469 505.53 394.554 503.722 391.44Z" stroke="white" stroke-width="2"/>
<path fill-rule="evenodd" clip-rule="evenodd" d="M511.953 362.308C511.022 361.628 510.81 360.307 511.615 359.482C517.21 353.752 526.531 353.752 532.125 359.482C532.93 360.307 532.718 361.628 531.787 362.308V362.308C530.856 362.989 529.562 362.763 528.709 361.988C524.855 358.485 518.885 358.485 515.032 361.988C514.178 362.763 512.884 362.989 511.953 362.308V362.308Z" fill="white"/>
<path d="M350.722 332.44L341.368 316.322C339.543 313.177 339.543 309.292 341.368 306.148L350.722 290.029C352.53 286.915 355.852 285 359.445 285L378.295 285C381.888 285 385.21 286.915 387.018 290.029L396.372 306.148C398.196 309.292 398.196 313.177 396.372 316.322L387.018 332.44C385.21 335.554 381.888 337.469 378.295 337.469L359.445 337.469C355.852 337.469 352.53 335.554 350.722 332.44Z" stroke="white" stroke-width="2"/>
<path fill-rule="evenodd" clip-rule="evenodd" d="M358.953 303.308C358.022 302.628 357.81 301.307 358.615 300.482C364.21 294.752 373.531 294.752 379.125 300.482C379.93 301.307 379.718 302.628 378.787 303.308V303.308C377.856 303.989 376.562 303.763 375.709 302.988C371.855 299.485 365.885 299.485 362.032 302.988C361.178 303.763 359.884 303.989 358.953 303.308V303.308Z" fill="white"/>
<path d="M626.722 282.44L617.368 266.322C615.543 263.177 615.543 259.292 617.368 256.148L626.722 240.029C628.53 236.915 631.852 235 635.445 235L654.295 235C657.888 235 661.21 236.915 663.018 240.029L672.372 256.148C674.196 259.292 674.196 263.177 672.372 266.322L663.018 282.44C661.21 285.554 657.888 287.469 654.295 287.469L635.445 287.469C631.852 287.469 628.53 285.554 626.722 282.44Z" stroke="white" stroke-width="2"/>
<path fill-rule="evenodd" clip-rule="evenodd" d="M634.953 253.308C634.022 252.628 633.81 251.307 634.615 250.482C640.21 244.752 649.531 244.752 655.125 250.482C655.93 251.307 655.718 252.628 654.787 253.308V253.308C653.856 253.989 652.562 253.763 651.709 252.988C647.855 249.485 641.885 249.485 638.032 252.988C637.178 253.763 635.884 253.989 634.953 253.308V253.308Z" fill="white"/>
<path d="M93.7223 244.44L84.3684 228.322C82.5435 225.177 82.5435 221.292 84.3684 218.148L93.7223 202.029C95.5296 198.915 98.8523 197 102.445 197L121.295 197C124.888 197 128.21 198.915 130.018 202.029L139.372 218.148C141.196 221.292 141.196 225.177 139.372 228.322L130.018 244.44C128.21 247.554 124.888 249.469 121.295 249.469L102.445 249.469C98.8522 249.469 95.5296 247.554 93.7223 244.44Z" stroke="white" stroke-width="2"/>
<path fill-rule="evenodd" clip-rule="evenodd" d="M101.953 215.308C101.022 214.628 100.81 213.307 101.615 212.482C107.21 206.752 116.531 206.752 122.125 212.482C122.93 213.307 122.718 214.628 121.787 215.308V215.308C120.856 215.989 119.562 215.763 118.709 214.988C114.855 211.485 108.885 211.485 105.032 214.988C104.178 215.763 102.884 215.989 101.953 215.308V215.308Z" fill="white"/>
<path d="M627.481 335.085L638.188 337.928C640.136 338.446 641.659 339.969 642.176 341.917L645.019 352.624C645.532 354.553 644.98 356.606 643.572 358.013L635.649 365.937C634.241 367.344 632.189 367.896 630.259 367.384L619.553 364.54C617.604 364.023 616.081 362.5 615.564 360.552L612.721 349.845C612.208 347.916 612.76 345.863 614.168 344.456L622.091 336.532C623.499 335.125 625.551 334.573 627.481 335.085Z" stroke="white" stroke-width="2"/>
<path fill-rule="evenodd" clip-rule="evenodd" d="M636.37 350.398C637.047 350.293 637.691 350.758 637.7 351.444C637.757 356.203 633.839 360.121 629.079 360.064C628.393 360.056 627.928 359.412 628.033 358.735V358.735C628.138 358.057 628.777 357.608 629.461 357.575C632.554 357.428 635.063 354.919 635.21 351.826C635.243 351.142 635.692 350.503 636.37 350.398V350.398Z" fill="white"/>
<path d="M94.4807 297.085L105.188 299.928C107.136 300.446 108.659 301.969 109.176 303.917L112.019 314.624C112.532 316.553 111.98 318.606 110.572 320.013L102.649 327.937C101.241 329.344 99.1887 329.896 97.2595 329.384L86.5527 326.54C84.6045 326.023 83.0815 324.5 82.5641 322.552L79.7208 311.845C79.2084 309.916 79.7604 307.863 81.168 306.456L89.0913 298.532C90.499 297.125 92.5514 296.573 94.4807 297.085Z" stroke="white" stroke-width="2"/>
<path fill-rule="evenodd" clip-rule="evenodd" d="M103.37 312.398C104.047 312.293 104.691 312.758 104.7 313.444C104.757 318.203 100.839 322.121 96.0788 322.064C95.3934 322.056 94.9276 321.412 95.0329 320.735V320.735C95.1383 320.057 95.7768 319.608 96.4614 319.575C99.5539 319.428 102.063 316.919 102.21 313.826C102.243 313.142 102.692 312.503 103.37 312.398V312.398Z" fill="white"/>
<path d="M753.614 169.854L764.32 172.697C766.269 173.214 767.792 174.737 768.309 176.686L771.152 187.392C771.665 189.322 771.113 191.374 769.705 192.782L761.782 200.705C760.374 202.113 758.322 202.665 756.392 202.152L745.685 199.309C743.737 198.792 742.214 197.269 741.697 195.32L738.854 184.614C738.341 182.684 738.893 180.632 740.301 179.224L748.224 171.301C749.632 169.893 751.684 169.341 753.614 169.854Z" stroke="white" stroke-width="2"/>
<path fill-rule="evenodd" clip-rule="evenodd" d="M762.502 185.166C763.18 185.061 763.824 185.527 763.832 186.212C763.889 190.972 759.971 194.89 755.212 194.833C754.526 194.825 754.06 194.18 754.166 193.503V193.503C754.271 192.826 754.91 192.377 755.594 192.344C758.687 192.197 761.196 189.687 761.343 186.595C761.376 185.91 761.825 185.272 762.502 185.166V185.166Z" fill="white"/>
<path d="M220.614 131.854L231.32 134.697C233.269 135.214 234.792 136.737 235.309 138.686L238.152 149.392C238.665 151.322 238.113 153.374 236.705 154.782L228.782 162.705C227.374 164.113 225.322 164.665 223.392 164.152L212.685 161.309C210.737 160.792 209.214 159.269 208.697 157.32L205.854 146.614C205.341 144.684 205.893 142.632 207.301 141.224L215.224 133.301C216.632 131.893 218.684 131.341 220.614 131.854Z" stroke="white" stroke-width="2"/>
<path fill-rule="evenodd" clip-rule="evenodd" d="M229.502 147.166C230.18 147.061 230.824 147.527 230.832 148.212C230.889 152.972 226.971 156.89 222.212 156.833C221.526 156.825 221.06 156.18 221.166 155.503V155.503C221.271 154.826 221.91 154.377 222.594 154.344C225.687 154.197 228.196 151.687 228.343 148.595C228.376 147.91 228.825 147.272 229.502 147.166V147.166Z" fill="white"/>
<path d="M729.614 43.8537L740.32 46.697C742.269 47.2144 743.792 48.7374 744.309 50.6856L747.152 61.3924C747.665 63.3217 747.113 65.3742 745.705 66.7818L737.782 74.7051C736.374 76.1127 734.322 76.6647 732.392 76.1523L721.685 73.309C719.737 72.7916 718.214 71.2686 717.697 69.3204L714.854 58.6136C714.341 56.6844 714.893 54.6319 716.301 53.2242L724.224 45.3009C725.632 43.8933 727.684 43.3414 729.614 43.8537Z" stroke="white" stroke-width="2"/>
<path fill-rule="evenodd" clip-rule="evenodd" d="M738.502 59.1664C739.18 59.0611 739.824 59.5269 739.832 60.2123C739.889 64.972 735.971 68.89 731.212 68.833C730.526 68.8248 730.06 68.1804 730.166 67.5031V67.5031C730.271 66.8258 730.91 66.3765 731.594 66.3439C734.687 66.1966 737.196 63.6874 737.343 60.5949C737.376 59.9103 737.825 59.2718 738.502 59.1664V59.1664Z" fill="white"/>
<path d="M547.614 106.854L558.32 109.697C560.269 110.214 561.792 111.737 562.309 113.686L565.152 124.392C565.665 126.322 565.113 128.374 563.705 129.782L555.782 137.705C554.374 139.113 552.322 139.665 550.392 139.152L539.685 136.309C537.737 135.792 536.214 134.269 535.697 132.32L532.854 121.614C532.341 119.684 532.893 117.632 534.301 116.224L542.224 108.301C543.632 106.893 545.684 106.341 547.614 106.854Z" stroke="white" stroke-width="2"/>
<path fill-rule="evenodd" clip-rule="evenodd" d="M556.502 122.166C557.18 122.061 557.824 122.527 557.832 123.212C557.889 127.972 553.971 131.89 549.212 131.833C548.526 131.825 548.06 131.18 548.166 130.503V130.503C548.271 129.826 548.91 129.377 549.594 129.344C552.687 129.197 555.196 126.687 555.343 123.595C555.376 122.91 555.825 122.272 556.502 122.166V122.166Z" fill="white"/>
<path d="M391.614 67.8537L402.32 70.697C404.269 71.2144 405.792 72.7374 406.309 74.6856L409.152 85.3924C409.665 87.3217 409.113 89.3742 407.705 90.7818L399.782 98.7051C398.374 100.113 396.322 100.665 394.392 100.152L383.685 97.309C381.737 96.7916 380.214 95.2686 379.697 93.3204L376.854 82.6136C376.341 80.6844 376.893 78.6319 378.301 77.2242L386.224 69.3009C387.632 67.8933 389.684 67.3414 391.614 67.8537Z" stroke="white" stroke-width="2"/>
<path fill-rule="evenodd" clip-rule="evenodd" d="M400.502 83.1664C401.18 83.0611 401.824 83.5269 401.832 84.2123C401.889 88.972 397.971 92.89 393.212 92.833C392.526 92.8248 392.06 92.1804 392.166 91.5031V91.5031C392.271 90.8258 392.91 90.3765 393.594 90.3439C396.687 90.1966 399.196 87.6874 399.343 84.5949C399.376 83.9103 399.825 83.2718 400.502 83.1664V83.1664Z" fill="white"/>
<path d="M38.6135 246.854L49.3203 249.697C51.2685 250.214 52.7915 251.737 53.3089 253.686L56.1522 264.392C56.6646 266.322 56.1126 268.374 54.705 269.782L46.7817 277.705C45.374 279.113 43.3216 279.665 41.3923 279.152L30.6855 276.309C28.7373 275.792 27.2143 274.269 26.6969 272.32L23.8536 261.614C23.3413 259.684 23.8932 257.632 25.3008 256.224L33.2241 248.301C34.6318 246.893 36.6843 246.341 38.6135 246.854Z" stroke="white" stroke-width="2"/>
<path fill-rule="evenodd" clip-rule="evenodd" d="M47.5024 262.166C48.1797 262.061 48.8241 262.527 48.8324 263.212C48.8894 267.972 44.9713 271.89 40.2116 271.833C39.5263 271.825 39.0604 271.18 39.1657 270.503V270.503C39.2711 269.826 39.9096 269.377 40.5943 269.344C43.6867 269.197 46.1959 266.687 46.3433 263.595C46.3759 262.91 46.8252 262.272 47.5024 262.166V262.166Z" fill="white"/>
<path d="M226.614 439.854L237.32 442.697C239.269 443.214 240.792 444.737 241.309 446.686L244.152 457.392C244.665 459.322 244.113 461.374 242.705 462.782L234.782 470.705C233.374 472.113 231.322 472.665 229.392 472.152L218.685 469.309C216.737 468.792 215.214 467.269 214.697 465.32L211.854 454.614C211.341 452.684 211.893 450.632 213.301 449.224L221.224 441.301C222.632 439.893 224.684 439.341 226.614 439.854Z" stroke="white" stroke-width="2"/>
<path fill-rule="evenodd" clip-rule="evenodd" d="M235.502 455.166C236.18 455.061 236.824 455.527 236.832 456.212C236.889 460.972 232.971 464.89 228.212 464.833C227.526 464.825 227.06 464.18 227.166 463.503V463.503C227.271 462.826 227.91 462.377 228.594 462.344C231.687 462.197 234.196 459.687 234.343 456.595C234.376 455.91 234.825 455.272 235.502 455.166V455.166Z" fill="white"/>
<path d="M569.614 407.854L580.32 410.697C582.269 411.214 583.792 412.737 584.309 414.686L587.152 425.392C587.665 427.322 587.113 429.374 585.705 430.782L577.782 438.705C576.374 440.113 574.322 440.665 572.392 440.152L561.685 437.309C559.737 436.792 558.214 435.269 557.697 433.32L554.854 422.614C554.341 420.684 554.893 418.632 556.301 417.224L564.224 409.301C565.632 407.893 567.684 407.341 569.614 407.854Z" stroke="white" stroke-width="2"/>
<path fill-rule="evenodd" clip-rule="evenodd" d="M578.502 423.166C579.18 423.061 579.824 423.527 579.832 424.212C579.889 428.972 575.971 432.89 571.212 432.833C570.526 432.825 570.06 432.18 570.166 431.503V431.503C570.271 430.826 570.91 430.377 571.594 430.344C574.687 430.197 577.196 427.687 577.343 424.595C577.376 423.91 577.825 423.272 578.502 423.166V423.166Z" fill="white"/>
<path d="M856.614 418.854L867.32 421.697C869.269 422.214 870.792 423.737 871.309 425.686L874.152 436.392C874.665 438.322 874.113 440.374 872.705 441.782L864.782 449.705C863.374 451.113 861.322 451.665 859.392 451.152L848.685 448.309C846.737 447.792 845.214 446.269 844.697 444.32L841.854 433.614C841.341 431.684 841.893 429.632 843.301 428.224L851.224 420.301C852.632 418.893 854.684 418.341 856.614 418.854Z" stroke="white" stroke-width="2"/>
<path fill-rule="evenodd" clip-rule="evenodd" d="M865.502 434.166C866.18 434.061 866.824 434.527 866.832 435.212C866.889 439.972 862.971 443.89 858.212 443.833C857.526 443.825 857.06 443.18 857.166 442.503V442.503C857.271 441.826 857.91 441.377 858.594 441.344C861.687 441.197 864.196 438.687 864.343 435.595C864.376 434.91 864.825 434.272 865.502 434.166V434.166Z" fill="white"/>
</g>
<defs>
<clipPath id="clip0_2226_77411">
<rect width="960" height="480" fill="white"/>
</clipPath>
</defs>
</svg>
